# xmcd CD database file
#
# Track frame offsets:
#	150
#	19347
#	44508
#	60934
#	75211
#	97836
#	115484
#	137382
#	155501
#	176480
#	196503
#	212000
#
# Disc length: 2955 seconds
#
# Revision: 0
# Processed by: cddbd v1.5PL3 Copyright (c) Steve Scherf et al.
# Submitted via: CDex 1.51
#
DISCID=8b0b890c
DTITLE=Jeremy Wallace - My Lucky Day
DYEAR=1998
DGENRE=Blues
TTITLE0=Missing You This Morning
TTITLE1=See You in September
TTITLE2=$1.49
TTITLE3=Since You Left
TTITLE4=Johnny
TTITLE5=Saint James Infirmary
TTITLE6=House Painting in America
TTITLE7=Stuck on You
TTITLE8=Somebody was Laughing
TTITLE9=Take a Ride with Me
TTITLE10=Blue Shoes
TTITLE11=Statesboro Blues
EXTD=YEAR: 1998
EXTT0=
EXTT1=
EXTT2=
EXTT3=
EXTT4=
EXTT5=
EXTT6=
EXTT7=
EXTT8=
EXTT9=
EXTT10=
EXTT11=
PLAYORDER=
